<svg width="1460" height="168" viewBox="0 0 1460 168" fill="none" xmlns="http://www.w3.org/2000/svg">
<path d="M67.9314 122.975H44.1107V164H0.439361V9.60638H71.0193C84.9882 9.60638 97.1192 11.959 107.412 16.6644C117.705 21.2227 125.645 27.8395 131.233 36.515C136.82 45.0434 139.614 55.1157 139.614 66.732C139.614 77.9072 136.967 87.6854 131.674 96.0668C126.527 104.301 119.102 110.771 109.397 115.476L142.702 164H95.9428L67.9314 122.975ZM95.5017 66.732C95.5017 59.527 93.2226 53.9394 88.6643 49.9693C84.106 45.9992 77.3421 44.0141 68.3726 44.0141H44.1107V89.2294H68.3726C77.3421 89.2294 84.106 87.3178 88.6643 83.4948C93.2226 79.5246 95.5017 73.9371 95.5017 66.732ZM241.566 167.088C225.244 167.088 210.54 163.632 197.453 156.721C184.514 149.81 174.294 140.253 166.795 128.048C159.443 115.844 155.767 102.096 155.767 86.8032C155.767 71.5109 159.443 57.7625 166.795 45.558C174.294 33.3536 184.514 23.7959 197.453 16.8849C210.54 9.97398 225.244 6.51851 241.566 6.51851C257.887 6.51851 272.518 9.97398 285.458 16.8849C298.544 23.7959 308.764 33.3536 316.116 45.558C323.615 57.7625 327.364 71.5109 327.364 86.8032C327.364 102.096 323.615 115.844 316.116 128.048C308.764 140.253 298.544 149.81 285.458 156.721C272.518 163.632 257.887 167.088 241.566 167.088ZM241.566 130.916C249.359 130.916 256.417 129.078 262.74 125.402C269.062 121.726 274.062 116.579 277.738 109.962C281.414 103.198 283.252 95.4786 283.252 86.8032C283.252 78.1277 281.414 70.4816 277.738 63.8647C274.062 57.1008 269.062 51.8808 262.74 48.2048C256.417 44.5287 249.359 42.6907 241.566 42.6907C233.772 42.6907 226.714 44.5287 220.392 48.2048C214.069 51.8808 209.069 57.1008 205.393 63.8647C201.717 70.4816 199.879 78.1277 199.879 86.8032C199.879 95.4786 201.717 103.198 205.393 109.962C209.069 116.579 214.069 121.726 220.392 125.402C226.714 129.078 233.772 130.916 241.566 130.916ZM468.9 83.4948C477.722 86.5826 484.633 91.435 489.633 98.0519C494.632 104.522 497.132 112.388 497.132 121.652C497.132 135.18 491.691 145.62 480.81 152.972C469.929 160.324 454.196 164 433.61 164H350.237V9.60638H429.199C448.902 9.60638 463.901 13.2824 474.193 20.6345C484.486 27.8395 489.633 37.6178 489.633 49.9693C489.633 57.3214 487.795 63.9382 484.119 69.8199C480.59 75.5545 475.517 80.1128 468.9 83.4948ZM393.468 41.1468V70.9227H423.464C438.168 70.9227 445.52 65.9233 445.52 55.9245C445.52 46.0727 438.168 41.1468 423.464 41.1468H393.468ZM430.081 132.46C445.373 132.46 453.019 127.24 453.019 116.8C453.019 106.36 445.373 101.14 430.081 101.14H393.468V132.46H430.081ZM597.61 167.088C581.288 167.088 566.584 163.632 553.498 156.721C540.558 149.81 530.339 140.253 522.839 128.048C515.487 115.844 511.811 102.096 511.811 86.8032C511.811 71.5109 515.487 57.7625 522.839 45.558C530.339 33.3536 540.558 23.7959 553.498 16.8849C566.584 9.97398 581.288 6.51851 597.61 6.51851C613.932 6.51851 628.562 9.97398 641.502 16.8849C654.589 23.7959 664.808 33.3536 672.16 45.558C679.659 57.7625 683.409 71.5109 683.409 86.8032C683.409 102.096 679.659 115.844 672.16 128.048C664.808 140.253 654.589 149.81 641.502 156.721C628.562 163.632 613.932 167.088 597.61 167.088ZM597.61 130.916C605.403 130.916 612.461 129.078 618.784 125.402C625.107 121.726 630.106 116.579 633.782 109.962C637.458 103.198 639.296 95.4786 639.296 86.8032C639.296 78.1277 637.458 70.4816 633.782 63.8647C630.106 57.1008 625.107 51.8808 618.784 48.2048C612.461 44.5287 605.403 42.6907 597.61 42.6907C589.817 42.6907 582.759 44.5287 576.436 48.2048C570.113 51.8808 565.114 57.1008 561.438 63.8647C557.762 70.4816 555.924 78.1277 555.924 86.8032C555.924 95.4786 557.762 103.198 561.438 109.962C565.114 116.579 570.113 121.726 576.436 125.402C582.759 129.078 589.817 130.916 597.61 130.916Z" fill="#FFE600"/>
<path d="M779.95 110.403C774.803 110.403 770.245 109.448 766.275 107.536C762.452 105.625 758.04 102.904 753.041 99.3752C749.806 97.0226 747.159 95.3316 745.101 94.3023C743.189 93.126 741.204 92.5378 739.146 92.5378C735.47 92.5378 732.455 93.9347 730.102 96.7285C727.897 99.3752 726.721 103.125 726.574 107.977H700.768C700.915 93.7141 704.223 82.6125 710.693 74.6723C717.163 66.732 725.618 62.7619 736.058 62.7619C741.351 62.7619 745.909 63.7177 749.733 65.6292C753.703 67.5407 758.187 70.261 763.187 73.79C766.422 76.1427 768.995 77.9072 770.907 79.0835C772.965 80.1128 775.024 80.6274 777.082 80.6274C780.758 80.6274 783.626 79.2306 785.684 76.4368C787.89 73.643 789.14 69.8199 789.434 64.9675H815.24C815.093 79.3776 811.784 90.5528 805.314 98.493C798.844 106.433 790.39 110.403 779.95 110.403ZM840.687 9.60638H913.693C930.603 9.60638 945.601 12.7678 958.688 19.0906C971.774 25.4134 981.92 34.3829 989.125 45.9992C996.33 57.6154 999.933 71.2168 999.933 86.8032C999.933 102.39 996.33 115.991 989.125 127.607C981.92 139.224 971.774 148.193 958.688 154.516C945.601 160.839 930.603 164 913.693 164H840.687V9.60638ZM911.929 129.151C925.162 129.151 935.749 125.402 943.69 117.902C951.777 110.403 955.82 100.037 955.82 86.8032C955.82 73.5695 951.777 63.203 943.69 55.7039C935.749 48.2048 925.162 44.4552 911.929 44.4552H884.358V129.151H911.929ZM1084.89 134.004C1090.62 134.004 1095.55 133.195 1099.67 131.577C1103.93 129.96 1108.19 127.313 1112.46 123.637L1134.29 146.576C1122.97 159.515 1106.06 165.985 1083.56 165.985C1069.6 165.985 1057.32 163.338 1046.73 158.045C1036.14 152.751 1027.91 145.399 1022.03 135.989C1016.29 126.578 1013.43 115.917 1013.43 104.007C1013.43 92.2437 1016.29 81.7303 1022.03 72.4666C1027.76 63.056 1035.63 55.7039 1045.63 50.4104C1055.77 45.1169 1067.1 42.4702 1079.59 42.4702C1091.21 42.4702 1101.8 44.8964 1111.35 49.7487C1121.06 54.4541 1128.78 61.4385 1134.51 70.7021C1140.25 79.8187 1143.12 90.6998 1143.12 103.345L1057.76 119.667C1062.32 129.225 1071.36 134.004 1084.89 134.004ZM1079.81 72.2461C1072.61 72.2461 1066.73 74.5252 1062.17 79.0835C1057.61 83.4948 1055.04 89.8911 1054.45 98.2724L1102.97 88.7883C1101.5 83.7888 1098.71 79.8187 1094.59 76.8779C1090.47 73.79 1085.55 72.2461 1079.81 72.2461ZM1208.98 165.985C1194.27 165.985 1182.8 162.236 1174.57 154.736C1166.48 147.09 1162.44 136.209 1162.44 122.093V0.342763H1204.34V119.888C1204.34 124.299 1205.45 127.681 1207.65 130.033C1210.01 132.386 1213.24 133.562 1217.36 133.562C1220.74 133.562 1223.9 132.827 1226.84 131.357L1228.61 162.897C1222.28 164.956 1215.74 165.985 1208.98 165.985ZM1320.62 159.148C1317.09 161.353 1312.75 163.044 1307.6 164.221C1302.6 165.397 1297.24 165.985 1291.5 165.985C1275.92 165.985 1263.93 162.162 1255.55 154.516C1247.32 146.87 1243.2 135.474 1243.2 120.329V17.7672H1285.11V48.8665H1312.24V80.1863H1285.11V119.888C1285.11 124.299 1286.21 127.681 1288.41 130.033C1290.62 132.386 1293.63 133.562 1297.46 133.562C1302.31 133.562 1306.57 132.313 1310.25 129.813L1320.62 159.148ZM1459.63 44.4552V164H1419.7V152.09C1411.91 161.353 1400.15 165.985 1384.41 165.985C1373.53 165.985 1363.61 163.485 1354.64 158.486C1345.82 153.339 1338.76 146.061 1333.46 136.65C1328.32 127.24 1325.74 116.359 1325.74 104.007C1325.74 91.6556 1328.32 80.848 1333.46 71.5844C1338.76 62.1737 1345.82 54.9687 1354.64 49.9693C1363.61 44.9699 1373.53 42.4702 1384.41 42.4702C1398.53 42.4702 1409.63 46.5873 1417.72 54.8217V44.4552H1459.63ZM1393.24 132.68C1400.59 132.68 1406.62 130.18 1411.32 125.181C1416.03 120.035 1418.38 112.977 1418.38 104.007C1418.38 95.1846 1416.03 88.2736 1411.32 83.2742C1406.62 78.2748 1400.59 75.7751 1393.24 75.7751C1385.88 75.7751 1379.86 78.2748 1375.15 83.2742C1370.45 88.2736 1368.09 95.1846 1368.09 104.007C1368.09 112.977 1370.45 120.035 1375.15 125.181C1379.86 130.18 1385.88 132.68 1393.24 132.68Z" fill="white"/>
</svg>
